<svg width="312" height="308" viewBox="0 0 312 308" fill="none" xmlns="http://www.w3.org/2000/svg">
<path d="M228.362 284.041H85.7462C76.4137 284.041 68.8237 276.481 68.8237 267.119V73.6476C68.8237 64.3151 76.3842 56.7251 85.7462 56.7251H228.362C237.694 56.7251 245.284 64.2856 245.284 73.6476V267.148C245.284 276.481 237.724 284.041 228.362 284.041Z" fill="#3E3D40"/>
<path d="M111.646 102.354H110.464V248.424H111.646V102.354Z" fill="#615F69"/>
<path d="M88.672 102.354H87.4907V248.425H88.672V102.354Z" fill="#615F69"/>
<path d="M135.008 102.354H133.827V248.424H135.008V102.354Z" fill="#615F69"/>
<path d="M158.398 102.354H157.216V248.424H158.398V102.354Z" fill="#615F69"/>
<path d="M181.758 102.354H180.577V248.424H181.758V102.354Z" fill="#615F69"/>
<path d="M205.15 102.354H203.968V248.424H205.15V102.354Z" fill="#615F69"/>
<path d="M228.51 102.354H227.329V248.424H228.51V102.354Z" fill="#615F69"/>
<path d="M89.4076 139.033L88.8169 137.734C90.0868 136.759 120.181 113.782 131.463 116.086C134.564 116.706 137.635 121.254 140.913 126.068C143.955 130.557 147.115 135.223 149.891 135.637C155.089 136.434 162.266 129.642 169.176 123.115C176.53 116.175 184.12 108.968 189.909 110.327C191.917 110.8 193.541 114.048 195.254 117.474C196.79 120.545 198.385 123.735 199.95 124.001C210.995 125.802 238.254 92.7253 238.52 92.4004L239.318 93.4931C238.195 94.8812 211.379 127.368 199.802 125.477C197.705 125.153 196.052 121.815 194.28 118.271C192.773 115.259 191.208 112.129 189.702 111.774C184.386 110.534 177.003 117.533 169.856 124.296C162.443 131.325 155.414 137.97 149.773 137.114C146.554 136.641 143.424 131.975 140.057 127.043C137.074 122.642 134.003 118.124 131.315 117.563C120.417 115.348 89.7324 138.797 89.4076 139.033Z" fill="url(#paint0_linear)"/>
<path d="M89.4076 193.729L88.8169 192.43C90.0868 191.455 120.181 168.479 131.463 170.782C134.564 171.402 137.635 175.951 140.913 180.764C143.955 185.253 147.115 189.92 149.891 190.333C155.089 191.131 162.266 184.338 169.176 177.811C176.53 170.871 184.12 163.665 189.909 165.023C191.917 165.496 193.541 168.744 195.254 172.17C196.79 175.242 198.385 178.431 199.95 178.697C210.995 180.499 238.254 147.422 238.52 147.097L239.318 148.189C238.195 149.577 211.379 182.064 199.802 180.174C197.705 179.849 196.052 176.512 194.28 172.968C192.773 169.955 191.208 166.825 189.702 166.47C184.386 165.23 177.003 172.229 169.856 178.992C162.443 186.021 155.414 192.666 149.773 191.81C146.554 191.337 143.424 186.671 140.057 181.739C137.074 177.339 134.003 172.82 131.315 172.259C120.417 170.044 89.7324 193.493 89.4076 193.729Z" fill="url(#paint1_linear)"/>
<path d="M89.4076 248.424L88.8169 247.124C90.0868 246.15 120.181 223.173 131.463 225.477C134.564 226.097 137.635 230.645 140.913 235.459C143.955 239.948 147.115 244.614 149.891 245.027C155.089 245.825 162.266 239.032 169.176 232.505C176.53 225.565 184.12 218.359 189.909 219.718C191.917 220.19 193.541 223.439 195.254 226.865C196.79 229.936 198.385 233.126 199.95 233.391C210.995 235.193 238.254 202.116 238.52 201.791L239.318 202.884C238.195 204.272 211.379 236.758 199.802 234.868C197.705 234.543 196.052 231.206 194.28 227.662C192.773 224.65 191.208 221.519 189.702 221.165C184.386 219.924 177.003 226.924 169.856 233.687C162.443 240.716 155.414 247.361 149.773 246.504C146.554 246.032 143.424 241.365 140.057 236.433C137.074 232.033 134.003 227.514 131.315 226.953C120.417 224.738 89.7324 248.188 89.4076 248.424Z" fill="url(#paint2_linear)"/>
<path d="M228.363 56.7256H85.7472C76.4147 56.7256 68.8247 64.2861 68.8247 73.648V76.4242H245.285V73.648C245.285 64.2861 237.725 56.7256 228.363 56.7256Z" fill="#282829"/>
<path d="M87.0458 68.3025C88.2854 68.3025 89.2903 67.2976 89.2903 66.058C89.2903 64.8184 88.2854 63.8135 87.0458 63.8135C85.8062 63.8135 84.8013 64.8184 84.8013 66.058C84.8013 67.2976 85.8062 68.3025 87.0458 68.3025Z" fill="#3E3D40"/>
<path d="M97.3505 68.3025C98.5901 68.3025 99.595 67.2976 99.595 66.058C99.595 64.8184 98.5901 63.8135 97.3505 63.8135C96.1109 63.8135 95.106 64.8184 95.106 66.058C95.106 67.2976 96.1109 68.3025 97.3505 68.3025Z" fill="#3E3D40"/>
<path d="M107.657 68.3025C108.897 68.3025 109.902 67.2976 109.902 66.058C109.902 64.8184 108.897 63.8135 107.657 63.8135C106.418 63.8135 105.413 64.8184 105.413 66.058C105.413 67.2976 106.418 68.3025 107.657 68.3025Z" fill="#3E3D40"/>
<path d="M100.423 216.618H11.3214C5.44428 216.618 0.689453 211.863 0.689453 205.986V165.467C0.689453 159.59 5.44428 154.835 11.3214 154.835H100.393C106.27 154.835 111.025 159.59 111.025 165.467V205.986C111.055 211.863 106.3 216.618 100.423 216.618Z" fill="#312F38"/>
<path d="M100.158 207.166H11.6177C11.6177 207.166 17.1994 198.543 20.2413 198.543C21.8657 198.543 23.1947 203.12 24.819 203.12C30.4893 203.12 35.1851 187.054 40.885 187.054C44.2222 187.054 46.9983 196.505 50.3356 196.505C55.4153 196.505 59.609 182.152 64.6887 182.152C68.587 182.152 71.8357 193.197 75.734 193.197C84.0919 193.197 99.3901 169.541 99.3901 169.541L100.158 207.166Z" fill="url(#paint3_linear)"/>
<path d="M16.8155 165.2H11.6177V170.398H16.8155V165.2Z" fill="url(#paint4_linear)"/>
<path d="M25.587 165.2H20.3892V170.398H25.587V165.2Z" fill="#FCAA72"/>
<path d="M34.3878 165.2H29.1899V170.398H34.3878V165.2Z" fill="url(#paint5_linear)"/>
<path d="M43.1866 165.2H37.9888V170.398H43.1866V165.2Z" fill="#FCAA72"/>
<path d="M45.935 294.673H120.683C127.476 294.673 132.999 289.151 132.999 282.358V248.247C132.999 241.455 127.476 235.932 120.683 235.932H45.935C39.1424 235.932 33.6197 241.455 33.6197 248.247V282.329C33.5902 289.151 39.1129 294.673 45.935 294.673Z" fill="#312F38"/>
<path d="M49.9261 276.983C47.2682 273.705 45.7915 269.541 45.7915 265.288C45.7915 259.116 48.8629 253.357 53.9722 249.872L57.5457 255.158C54.1789 257.433 52.1411 261.242 52.1411 265.288C52.1411 268.124 53.0862 270.782 54.8582 272.967L49.9261 276.983Z" fill="#8CA6F9"/>
<path d="M64.397 283.894C58.7562 283.894 53.4993 281.384 49.9258 276.983L54.8873 272.967C57.2205 275.861 60.6758 277.515 64.397 277.515C69.329 277.515 73.7295 274.591 75.6491 270.043L81.4967 272.524C78.6024 279.435 71.8689 283.894 64.397 283.894Z" fill="#4668F9"/>
<path d="M81.5254 272.553L75.6779 270.072C76.3276 268.566 76.6229 266.971 76.6229 265.317C76.6229 260.976 74.4079 257.048 70.6572 254.803L73.9354 249.34C79.5172 252.677 83.0021 258.79 83.0021 265.317C82.9725 267.798 82.5 270.249 81.5254 272.553Z" fill="#D15602"/>
<path d="M57.572 255.158L53.9985 249.901C57.07 247.834 60.673 246.712 64.3942 246.712C67.761 246.712 71.0391 247.627 73.9038 249.34L70.6257 254.804C68.7355 253.682 66.5796 253.091 64.3647 253.091C61.9429 253.091 59.5803 253.8 57.572 255.158Z" fill="#FCAA72"/>
<path d="M118.143 249.044H92.0353C91.3856 249.044 90.854 248.513 90.854 247.863C90.854 247.213 91.3856 246.682 92.0353 246.682H118.143C118.792 246.682 119.324 247.213 119.324 247.863C119.324 248.513 118.792 249.044 118.143 249.044Z" fill="#8CA6F9"/>
<path d="M118.143 257.756H92.0353C91.3856 257.756 90.854 257.225 90.854 256.575C90.854 255.925 91.3856 255.394 92.0353 255.394H118.143C118.792 255.394 119.324 255.925 119.324 256.575C119.324 257.225 118.792 257.756 118.143 257.756Z" fill="#8CA6F9"/>
<path d="M118.143 266.469H92.0353C91.3856 266.469 90.854 265.937 90.854 265.288C90.854 264.638 91.3856 264.106 92.0353 264.106H118.143C118.792 264.106 119.324 264.638 119.324 265.288C119.324 265.937 118.792 266.469 118.143 266.469Z" fill="#8CA6F9"/>
<path d="M118.143 275.181H92.0353C91.3856 275.181 90.854 274.649 90.854 274C90.854 273.35 91.3856 272.818 92.0353 272.818H118.143C118.792 272.818 119.324 273.35 119.324 274C119.324 274.649 118.792 275.181 118.143 275.181Z" fill="#8CA6F9"/>
<path d="M118.143 283.893H92.0353C91.3856 283.893 90.854 283.361 90.854 282.712C90.854 282.062 91.3856 281.53 92.0353 281.53H118.143C118.792 281.53 119.324 282.062 119.324 282.712C119.324 283.361 118.792 283.893 118.143 283.893Z" fill="#8CA6F9"/>
<path d="M85.8639 128.815H21.0978C14.7481 128.815 9.60938 123.676 9.60938 117.326V95.0584C9.60938 88.7088 14.7481 83.5701 21.0978 83.5701H85.8343C92.1839 83.5701 97.3227 88.7088 97.3227 95.0584V117.297C97.3522 123.646 92.2135 128.815 85.8639 128.815Z" fill="#312F38"/>
<path d="M34.3864 120.014C42.0198 120.014 48.2079 113.826 48.2079 106.193C48.2079 98.5592 42.0198 92.3711 34.3864 92.3711C26.753 92.3711 20.5649 98.5592 20.5649 106.193C20.5649 113.826 26.753 120.014 34.3864 120.014Z" fill="#8CA6F9"/>
<path d="M39.8195 104.805L32.8497 100.789C31.7865 100.169 30.4575 100.936 30.4575 102.177V110.239C30.4575 111.45 31.7865 112.218 32.8497 111.627L39.8195 107.611C40.8827 106.961 40.8827 105.425 39.8195 104.805Z" fill="url(#paint6_linear)"/>
<path d="M86.6607 95.5607H57.482C56.596 95.5607 55.8872 94.8519 55.8872 93.9659C55.8872 93.0799 56.596 92.3711 57.482 92.3711H86.6607C87.5467 92.3711 88.2555 93.0799 88.2555 93.9659C88.2555 94.8519 87.5172 95.5607 86.6607 95.5607Z" fill="#8CA6F9"/>
<path d="M86.6607 103.948H57.482C56.596 103.948 55.8872 103.24 55.8872 102.354C55.8872 101.468 56.596 100.759 57.482 100.759H86.6607C87.5467 100.759 88.2555 101.468 88.2555 102.354C88.2555 103.24 87.5172 103.948 86.6607 103.948Z" fill="#8CA6F9"/>
<path d="M86.6607 112.336H57.482C56.596 112.336 55.8872 111.627 55.8872 110.741C55.8872 109.855 56.596 109.146 57.482 109.146H86.6607C87.5467 109.146 88.2555 109.855 88.2555 110.741C88.2555 111.627 87.5172 112.336 86.6607 112.336Z" fill="#8CA6F9"/>
<path d="M69.799 120.724H57.5132C56.6272 120.724 55.9185 120.015 55.9185 119.129C55.9185 118.243 56.6272 117.534 57.5132 117.534H69.799C70.685 117.534 71.3938 118.243 71.3938 119.129C71.3938 120.015 70.6555 120.724 69.799 120.724Z" fill="#8CA6F9"/>
<path d="M278.183 110.977H207.805C204.35 110.977 201.544 108.171 201.544 104.716V86.4351C201.544 82.9797 204.35 80.1741 207.805 80.1741H278.183C281.638 80.1741 284.444 82.9797 284.444 86.4351V104.716C284.473 108.171 281.638 110.977 278.183 110.977Z" fill="#312F38"/>
<path d="M222.808 106.194C228.68 106.194 233.44 101.433 233.44 95.5616C233.44 89.6898 228.68 84.9297 222.808 84.9297C216.936 84.9297 212.176 89.6898 212.176 95.5616C212.176 101.433 216.936 106.194 222.808 106.194Z" fill="#FCAA72"/>
<path d="M221.931 98.6035C221.772 98.6035 221.612 98.5437 221.513 98.424L218.401 95.3122C218.161 95.0728 218.161 94.6938 218.401 94.4544C218.64 94.2151 219.019 94.2151 219.258 94.4544L221.931 97.1274L226.36 92.6991C226.599 92.4597 226.978 92.4597 227.218 92.6991C227.457 92.9384 227.457 93.3174 227.218 93.5568L222.35 98.424C222.231 98.5437 222.091 98.6035 221.931 98.6035Z" fill="url(#paint7_linear)"/>
<path d="M276.413 86.9677H240.323C239.762 86.9677 239.29 86.4952 239.29 85.934C239.29 85.3729 239.762 84.9004 240.323 84.9004H276.413C276.974 84.9004 277.446 85.3729 277.446 85.934C277.446 86.5247 276.974 86.9677 276.413 86.9677Z" fill="#FCAA72"/>
<path d="M255.917 91.6337H240.323C239.762 91.6337 239.29 91.1612 239.29 90.6001C239.29 90.0389 239.762 89.5664 240.323 89.5664H255.917C256.478 89.5664 256.95 90.0389 256.95 90.6001C256.921 91.1907 256.478 91.6337 255.917 91.6337Z" fill="#FCAA72"/>
<path d="M276.413 99.9618H240.323C239.762 99.9618 239.29 99.4893 239.29 98.9282C239.29 98.3671 239.762 97.8945 240.323 97.8945H276.413C276.974 97.8945 277.446 98.3671 277.446 98.9282C277.446 99.4893 276.974 99.9618 276.413 99.9618Z" fill="#FCAA72"/>
<path d="M255.917 104.628H240.323C239.762 104.628 239.29 104.155 239.29 103.594C239.29 103.033 239.762 102.561 240.323 102.561H255.917C256.478 102.561 256.95 103.033 256.95 103.594C256.921 104.155 256.478 104.628 255.917 104.628Z" fill="#FCAA72"/>
<path d="M261.703 307.698H188.698C182.909 307.698 178.213 303.002 178.213 297.214V196.21C178.213 190.422 182.909 185.726 188.698 185.726H261.674C267.462 185.726 272.158 190.422 272.158 196.21V297.214C272.158 303.002 267.492 307.698 261.703 307.698Z" fill="#312F38"/>
<path d="M192.861 270.546H192.566C191.296 270.546 190.262 269.512 190.262 268.242V203.771C190.262 202.501 191.296 201.468 192.566 201.468H192.861C194.131 201.468 195.165 202.501 195.165 203.771V268.242C195.165 269.512 194.131 270.546 192.861 270.546Z" fill="#FCDCC8"/>
<path d="M207.892 270.546H207.597C206.327 270.546 205.293 269.512 205.293 268.242V203.771C205.293 202.501 206.327 201.468 207.597 201.468H207.892C209.162 201.468 210.196 202.501 210.196 203.771V268.242C210.196 269.512 209.162 270.546 207.892 270.546Z" fill="#FCDCC8"/>
<path d="M222.955 270.546H222.66C221.39 270.546 220.356 269.512 220.356 268.242V203.771C220.356 202.501 221.39 201.468 222.66 201.468H222.955C224.225 201.468 225.258 202.501 225.258 203.771V268.242C225.229 269.512 224.195 270.546 222.955 270.546Z" fill="#FCDCC8"/>
<path d="M237.989 270.546H237.694C236.424 270.546 235.39 269.512 235.39 268.242V203.771C235.39 202.501 236.424 201.468 237.694 201.468H237.989C239.259 201.468 240.293 202.501 240.293 203.771V268.242C240.293 269.512 239.259 270.546 237.989 270.546Z" fill="#FCDCC8"/>
<path d="M253.02 270.546H252.724C251.455 270.546 250.421 269.512 250.421 268.242V203.771C250.421 202.501 251.455 201.468 252.724 201.468H253.02C254.29 201.468 255.323 202.501 255.323 203.771V268.242C255.323 269.512 254.29 270.546 253.02 270.546Z" fill="#FCDCC8"/>
<path d="M192.861 272.848H192.566C191.296 272.848 190.262 271.814 190.262 270.545V233.215C190.262 231.945 191.296 230.911 192.566 230.911H192.861C194.131 230.911 195.165 231.945 195.165 233.215V270.545C195.165 271.814 194.131 272.848 192.861 272.848Z" fill="#FCAA72"/>
<path d="M207.894 272.848H207.599C206.329 272.848 205.295 271.814 205.295 270.544V241.838C205.295 240.568 206.329 239.534 207.599 239.534H207.894C209.164 239.534 210.198 240.568 210.198 241.838V270.544C210.198 271.814 209.164 272.848 207.894 272.848Z" fill="#FCAA72"/>
<path d="M222.957 272.849H222.661C221.392 272.849 220.358 271.815 220.358 270.545V218.271C220.358 217.001 221.392 215.968 222.661 215.968H222.957C224.227 215.968 225.26 217.001 225.26 218.271V270.545C225.231 271.815 224.197 272.849 222.957 272.849Z" fill="#FCAA72"/>
<path d="M237.99 272.849H237.695C236.425 272.849 235.391 271.815 235.391 270.545V227.663C235.391 226.393 236.425 225.359 237.695 225.359H237.99C239.26 225.359 240.294 226.393 240.294 227.663V270.575C240.294 271.815 239.26 272.849 237.99 272.849Z" fill="#FCAA72"/>
<path d="M253.019 272.848H252.724C251.454 272.848 250.42 271.815 250.42 270.545V239.919C250.42 238.649 251.454 237.615 252.724 237.615H253.019C254.289 237.615 255.323 238.649 255.323 239.919V270.545C255.323 271.815 254.289 272.848 253.019 272.848Z" fill="#FCAA72"/>
<path d="M204.233 299.044H193.837C191.888 299.044 190.293 297.449 190.293 295.5V285.105C190.293 283.155 191.888 281.561 193.837 281.561H204.233C206.182 281.561 207.777 283.155 207.777 285.105V295.5C207.777 297.449 206.182 299.044 204.233 299.044Z" fill="#8CA6F9"/>
<path d="M254.084 284.041H216.34C215.661 284.041 215.1 283.48 215.1 282.801C215.1 282.122 215.661 281.561 216.34 281.561H254.084C254.763 281.561 255.324 282.122 255.324 282.801C255.324 283.48 254.763 284.041 254.084 284.041Z" fill="#8CA6F9"/>
<path d="M254.084 291.542H216.34C215.661 291.542 215.1 290.981 215.1 290.302C215.1 289.623 215.661 289.062 216.34 289.062H254.084C254.763 289.062 255.324 289.623 255.324 290.302C255.324 290.981 254.763 291.542 254.084 291.542Z" fill="#8CA6F9"/>
<path d="M243.097 299.044H216.34C215.661 299.044 215.1 298.483 215.1 297.804C215.1 297.125 215.661 296.563 216.34 296.563H243.097C243.777 296.563 244.338 297.125 244.338 297.804C244.338 298.483 243.777 299.044 243.097 299.044Z" fill="#8CA6F9"/>
<path d="M203.732 170.399H143.779C137.814 170.399 132.97 165.555 132.97 159.59V139.625C132.97 133.66 137.814 128.816 143.779 128.816H203.732C209.697 128.816 214.541 133.66 214.541 139.625V159.59C214.541 165.555 209.697 170.399 203.732 170.399Z" fill="#312F38"/>
<path d="M161.355 159.618C159.081 156.783 157.811 153.239 157.811 149.577C157.811 144.261 160.439 139.329 164.84 136.346L167.911 140.864C165.017 142.813 163.275 146.092 163.275 149.577C163.275 151.998 164.072 154.302 165.608 156.162L161.355 159.618Z" fill="#8CA6F9"/>
<path d="M173.76 165.553C168.916 165.553 164.398 163.398 161.356 159.617L165.609 156.191C167.617 158.672 170.6 160.09 173.789 160.09C178.013 160.09 181.822 157.58 183.476 153.681L188.497 155.808C185.987 161.744 180.198 165.553 173.76 165.553Z" fill="#4668F9"/>
<path d="M188.495 155.808L183.474 153.682C184.035 152.383 184.301 151.024 184.301 149.606C184.301 145.885 182.381 142.489 179.192 140.599L181.998 135.903C186.811 138.768 189.794 144.025 189.794 149.606C189.735 151.762 189.322 153.83 188.495 155.808Z" fill="#D15602"/>
<path d="M167.908 140.894L164.837 136.375C167.465 134.603 170.566 133.658 173.756 133.658C176.65 133.658 179.456 134.426 181.937 135.903L179.131 140.598C177.507 139.624 175.646 139.122 173.756 139.122C171.659 139.092 169.651 139.712 167.908 140.894Z" fill="#FCAA72"/>
<path d="M147.175 142.134H146.496C144.546 142.134 142.952 140.54 142.952 138.59V137.911C142.952 135.962 144.546 134.367 146.496 134.367H147.175C149.124 134.367 150.719 135.962 150.719 137.911V138.59C150.719 140.54 149.124 142.134 147.175 142.134Z" fill="#FCAA72"/>
<path d="M147.175 153.476H146.496C144.546 153.476 142.952 151.881 142.952 149.932V149.253C142.952 147.304 144.546 145.709 146.496 145.709H147.175C149.124 145.709 150.719 147.304 150.719 149.253V149.932C150.719 151.881 149.124 153.476 147.175 153.476Z" fill="#FCAA72"/>
<path d="M147.175 164.816H146.496C144.546 164.816 142.952 163.221 142.952 161.272V160.593C142.952 158.644 144.546 157.049 146.496 157.049H147.175C149.124 157.049 150.719 158.644 150.719 160.593V161.272C150.719 163.221 149.124 164.816 147.175 164.816Z" fill="#FCAA72"/>
<path d="M203.879 137.498H197.588C196.791 137.498 196.141 136.848 196.141 136.051V135.814C196.141 135.017 196.791 134.367 197.588 134.367H203.879C204.676 134.367 205.326 135.017 205.326 135.814V136.051C205.326 136.848 204.676 137.498 203.879 137.498Z" fill="#8CA6F9"/>
<path d="M203.879 144.32H197.588C196.791 144.32 196.141 143.67 196.141 142.873V142.637C196.141 141.839 196.791 141.189 197.588 141.189H203.879C204.676 141.189 205.326 141.839 205.326 142.637V142.873C205.326 143.67 204.676 144.32 203.879 144.32Z" fill="#8CA6F9"/>
<path d="M203.879 151.142H197.588C196.791 151.142 196.141 150.493 196.141 149.695V149.459C196.141 148.661 196.791 148.012 197.588 148.012H203.879C204.676 148.012 205.326 148.661 205.326 149.459V149.695C205.326 150.493 204.676 151.142 203.879 151.142Z" fill="#8CA6F9"/>
<path d="M203.879 157.994H197.588C196.791 157.994 196.141 157.344 196.141 156.547V156.31C196.141 155.513 196.791 154.863 197.588 154.863H203.879C204.676 154.863 205.326 155.513 205.326 156.31V156.547C205.326 157.344 204.676 157.994 203.879 157.994Z" fill="#8CA6F9"/>
<path d="M203.879 164.817H197.588C196.791 164.817 196.141 164.167 196.141 163.37V163.134C196.141 162.336 196.791 161.687 197.588 161.687H203.879C204.676 161.687 205.326 162.336 205.326 163.134V163.37C205.326 164.167 204.676 164.817 203.879 164.817Z" fill="#8CA6F9"/>
<path d="M235.301 44.2324H121.126C117.464 44.2324 114.511 41.2791 114.511 37.617V13.4294C114.511 9.76728 117.464 6.81396 121.126 6.81396H235.301C238.963 6.81396 241.917 9.76728 241.917 13.4294V37.617C241.917 41.2496 238.963 44.2324 235.301 44.2324Z" fill="#312F38"/>
<path d="M135.449 36.8782C141.728 36.8782 146.819 31.7875 146.819 25.5079C146.819 19.2283 141.728 14.1377 135.449 14.1377C129.169 14.1377 124.079 19.2283 124.079 25.5079C124.079 31.7875 129.169 36.8782 135.449 36.8782Z" fill="#8CA6F9"/>
<path d="M135.451 25.9513C137.816 25.9513 139.733 24.0341 139.733 21.669C139.733 19.304 137.816 17.3867 135.451 17.3867C133.086 17.3867 131.168 19.304 131.168 21.669C131.168 24.0341 133.086 25.9513 135.451 25.9513Z" fill="url(#paint8_linear)"/>
<path d="M135.449 26.542C131.373 26.542 127.948 29.3476 127.002 33.1574C129.07 35.461 132.082 36.9081 135.449 36.9081C138.786 36.9081 141.799 35.461 143.895 33.1574C142.98 29.3476 139.554 26.542 135.449 26.542Z" fill="url(#paint9_linear)"/>
<path d="M227.977 17.3863H155.414C154.528 17.3863 153.79 16.648 153.79 15.762C153.79 14.876 154.528 14.1377 155.414 14.1377H227.977C228.863 14.1377 229.601 14.876 229.601 15.762C229.601 16.648 228.892 17.3863 227.977 17.3863Z" fill="#8CA6F9"/>
<path d="M227.977 27.1324H155.414C154.528 27.1324 153.79 26.3941 153.79 25.5081C153.79 24.6221 154.528 23.8838 155.414 23.8838H227.977C228.863 23.8838 229.601 24.6221 229.601 25.5081C229.601 26.3941 228.892 27.1324 227.977 27.1324Z" fill="#8CA6F9"/>
<path d="M188.107 36.8785H155.414C154.528 36.8785 153.79 36.1402 153.79 35.2542C153.79 34.3682 154.528 33.6299 155.414 33.6299H188.107C188.993 33.6299 189.731 34.3682 189.731 35.2542C189.731 36.1402 188.993 36.8785 188.107 36.8785Z" fill="#8CA6F9"/>
<path d="M68.8192 44.2047C80.7749 44.2047 90.4669 34.5127 90.4669 22.5569C90.4669 10.6012 80.7749 0.90918 68.8192 0.90918C56.8634 0.90918 47.1714 10.6012 47.1714 22.5569C47.1714 34.5127 56.8634 44.2047 68.8192 44.2047Z" fill="#FCAA72"/>
<path d="M62.0864 15.7113C62.0864 15.4351 62.3103 15.2113 62.5864 15.2113H63.741C64.0171 15.2113 64.241 14.9874 64.241 14.7113V13.875C64.241 13.5989 64.4648 13.375 64.741 13.375H65.8955C66.1717 13.375 66.3955 13.5989 66.3955 13.875V14.7113C66.3955 14.9874 66.6194 15.2113 66.8955 15.2113H68.0501C68.3262 15.2113 68.5501 14.9874 68.5501 14.7113V13.875C68.5501 13.5989 68.7739 13.375 69.0501 13.375H70.2046C70.4808 13.375 70.7046 13.5989 70.7046 13.875V14.7839C70.7046 15.0418 70.9014 15.2549 71.1553 15.2998C73.3582 15.6893 75.0137 17.3468 75.0137 19.3429C75.0137 20.2896 74.6409 21.1786 74.0082 21.8724C73.7694 22.1343 73.7958 22.5718 74.0695 22.797C74.9824 23.5482 75.5524 24.6054 75.5524 25.7698C75.5524 27.9213 73.6593 29.6695 71.2041 29.8801C70.9289 29.9037 70.7046 30.1252 70.7046 30.4014V31.2376C70.7046 31.5138 70.4808 31.7376 70.2046 31.7376H69.0501C68.7739 31.7376 68.5501 31.5138 68.5501 31.2376V30.4014C68.5501 30.1252 68.3262 29.9014 68.0501 29.9014H66.8955C66.6194 29.9014 66.3955 30.1252 66.3955 30.4014V31.2376C66.3955 31.5138 66.1717 31.7376 65.8955 31.7376H64.741C64.4648 31.7376 64.241 31.5138 64.241 31.2376V30.4014C64.241 30.1252 64.0171 29.9014 63.741 29.9014H62.7542C62.4205 29.9014 62.1805 29.5808 62.2744 29.2606L62.5197 28.4244C62.5821 28.2114 62.7775 28.0651 62.9995 28.0651H63.741C64.0171 28.0651 64.241 27.8413 64.241 27.5651V17.5475C64.241 17.2714 64.0171 17.0475 63.741 17.0475H62.5864C62.3103 17.0475 62.0864 16.8237 62.0864 16.5475V15.7113ZM66.8955 23.4745C66.6194 23.4745 66.3955 23.6983 66.3955 23.9745V27.5651C66.3955 27.8413 66.6194 28.0651 66.8955 28.0651H70.7046C71.4189 28.0651 72.1039 27.8233 72.609 27.3928C73.1141 26.9624 73.3978 26.3785 73.3978 25.7698C73.3978 25.161 73.1141 24.5772 72.609 24.1467C72.1039 23.7163 71.4189 23.4745 70.7046 23.4745H66.8955ZM66.8955 17.0475C66.6194 17.0475 66.3955 17.2714 66.3955 17.5475V21.1382C66.3955 21.4143 66.6194 21.6382 66.8955 21.6382H70.166C70.8803 21.6382 71.5653 21.3964 72.0704 20.9659C72.5754 20.5354 72.8592 19.9516 72.8592 19.3429C72.8592 18.7341 72.5754 18.1503 72.0704 17.7198C71.5653 17.2894 70.8803 17.0475 70.166 17.0475H66.8955Z" fill="white" stroke="white" stroke-width="0.4"/>
<path d="M295.429 165.821C304.383 165.821 311.642 158.562 311.642 149.607C311.642 140.652 304.383 133.393 295.429 133.393C286.474 133.393 279.215 140.652 279.215 149.607C279.215 158.562 286.474 165.821 295.429 165.821Z" fill="#8CA6F9"/>
<path d="M289.485 150.454L295.427 158.095L301.37 150.454L295.427 153.001L289.485 150.454Z" fill="white"/>
<path d="M301.371 149.266L295.428 141.116L289.486 149.266L295.428 151.303L301.371 149.266Z" fill="white"/>
<defs>
<linearGradient id="paint0_linear" x1="82.546" y1="86.9599" x2="111.501" y2="194.855" gradientUnits="userSpaceOnUse">
<stop stop-color="#FFCC01"/>
<stop offset="1" stop-color="#FF9901"/>
</linearGradient>
<linearGradient id="paint1_linear" x1="82.546" y1="141.656" x2="111.501" y2="249.552" gradientUnits="userSpaceOnUse">
<stop stop-color="#FFCC01"/>
<stop offset="1" stop-color="#FF9901"/>
</linearGradient>
<linearGradient id="paint2_linear" x1="82.546" y1="196.351" x2="111.501" y2="304.246" gradientUnits="userSpaceOnUse">
<stop stop-color="#FFCC01"/>
<stop offset="1" stop-color="#FF9901"/>
</linearGradient>
<linearGradient id="paint3_linear" x1="11.6104" y1="188.376" x2="100.149" y2="188.376" gradientUnits="userSpaceOnUse">
<stop stop-color="#FCAB72"/>
<stop offset="0.0274441" stop-color="#F8A367"/>
<stop offset="0.1135" stop-color="#EE8C48"/>
<stop offset="0.1619" stop-color="#EA833D"/>
<stop offset="0.8233" stop-color="#EA833D"/>
<stop offset="0.8841" stop-color="#E77D35"/>
<stop offset="0.9784" stop-color="#DE6C1F"/>
<stop offset="1" stop-color="#DB6719"/>
</linearGradient>
<linearGradient id="paint4_linear" x1="11.6104" y1="167.791" x2="16.8027" y2="167.791" gradientUnits="userSpaceOnUse">
<stop stop-color="#FCAB72"/>
<stop offset="0.0274441" stop-color="#F8A367"/>
<stop offset="0.1135" stop-color="#EE8C48"/>
<stop offset="0.1619" stop-color="#EA833D"/>
<stop offset="0.8233" stop-color="#EA833D"/>
<stop offset="0.8841" stop-color="#E77D35"/>
<stop offset="0.9784" stop-color="#DE6C1F"/>
<stop offset="1" stop-color="#DB6719"/>
</linearGradient>
<linearGradient id="paint5_linear" x1="29.1879" y1="167.791" x2="34.3802" y2="167.791" gradientUnits="userSpaceOnUse">
<stop stop-color="#FCAB72"/>
<stop offset="0.0274441" stop-color="#F8A367"/>
<stop offset="0.1135" stop-color="#EE8C48"/>
<stop offset="0.1619" stop-color="#EA833D"/>
<stop offset="0.8233" stop-color="#EA833D"/>
<stop offset="0.8841" stop-color="#E77D35"/>
<stop offset="0.9784" stop-color="#DE6C1F"/>
<stop offset="1" stop-color="#DB6719"/>
</linearGradient>
<linearGradient id="paint6_linear" x1="35.5403" y1="100.563" x2="35.5403" y2="111.806" gradientUnits="userSpaceOnUse">
<stop stop-color="#FDFEFF"/>
<stop offset="0.1619" stop-color="#F2F6FE"/>
<stop offset="0.8233" stop-color="#F2F6FE"/>
<stop offset="0.888" stop-color="#EAF0FB"/>
<stop offset="0.9884" stop-color="#D4DFF1"/>
<stop offset="1" stop-color="#D1DDF0"/>
</linearGradient>
<linearGradient id="paint7_linear" x1="218.215" y1="95.5711" x2="227.402" y2="95.5711" gradientUnits="userSpaceOnUse">
<stop stop-color="#F2F6FE"/>
<stop offset="0.2926" stop-color="#EDF2FC"/>
<stop offset="0.6457" stop-color="#DEE7F6"/>
<stop offset="1" stop-color="#C8D7ED"/>
</linearGradient>
<linearGradient id="paint8_linear" x1="131.17" y1="21.6792" x2="139.759" y2="21.6792" gradientUnits="userSpaceOnUse">
<stop stop-color="#FDFEFF"/>
<stop offset="0.1619" stop-color="#F2F6FE"/>
<stop offset="0.8233" stop-color="#F2F6FE"/>
<stop offset="0.888" stop-color="#EAF0FB"/>
<stop offset="0.9884" stop-color="#D4DFF1"/>
<stop offset="1" stop-color="#D1DDF0"/>
</linearGradient>
<linearGradient id="paint9_linear" x1="127.023" y1="31.7048" x2="143.902" y2="31.7048" gradientUnits="userSpaceOnUse">
<stop stop-color="#FDFEFF"/>
<stop offset="0.1619" stop-color="#F2F6FE"/>
<stop offset="0.8233" stop-color="#F2F6FE"/>
<stop offset="0.888" stop-color="#EAF0FB"/>
<stop offset="0.9884" stop-color="#D4DFF1"/>
<stop offset="1" stop-color="#D1DDF0"/>
</linearGradient>
</defs>
</svg>
