<svg width="21" height="19" viewBox="0 0 21 19" fill="none" xmlns="http://www.w3.org/2000/svg">
<g id="Iconly/Bulk/Wallet">
<g id="Wallet">
<path id="Fill 1" fill-rule="evenodd" clip-rule="evenodd" d="M20.517 6.27233H16.2825C14.3119 6.2758 12.7156 7.83227 12.712 9.7536C12.7093 11.6793 14.3075 13.2427 16.2825 13.2453H20.5205V13.5512C20.5205 16.9103 18.4842 18.8966 15.0381 18.8966H6.00478C2.55783 18.8966 0.521484 16.9103 0.521484 13.5512V6.23506C0.521484 2.87599 2.55783 0.897461 6.00478 0.897461H15.0346C18.4806 0.897461 20.517 2.87599 20.517 6.23506V6.27233ZM5.26176 6.26537H10.9015H10.905H10.9122C11.3344 6.26363 11.6757 5.92825 11.6739 5.51573C11.6721 5.10408 11.3272 4.77129 10.905 4.77302H5.26176C4.84222 4.77476 4.5018 5.10668 4.50002 5.5166C4.49824 5.92825 4.83956 6.26363 5.26176 6.26537Z" fill="#95949A"/>
<path id="Fill 4" d="M14.5578 10.1934C14.767 11.1447 15.601 11.814 16.5533 11.7966H19.8037C20.1999 11.7966 20.5212 11.4685 20.5212 11.0629V8.53098C20.5204 8.12626 20.1999 7.79726 19.8037 7.79639H16.4767C15.3936 7.79987 14.5187 8.69896 14.5204 9.80695C14.5204 9.93664 14.5331 10.0663 14.5578 10.1934Z" fill="#615F69"/>
<circle id="Oval" cx="16.5205" cy="9.79677" r="1.00014" fill="#95949A"/>
</g>
</g>
</svg>
